<?xml version="1.0" encoding="utf-8"?>
<svg width="451.40002px" height="314.68994px" viewBox="0 0 451.40002 314.68994" version="1.1" xmlns:xlink="http://www.w3.org/1999/xlink" xmlns="http://www.w3.org/2000/svg">
  <defs>
    <path d="M451.4 0L451.4 0L451.4 314.69L0 314.69L0 0L451.4 0Z" id="path_1" />
    <clipPath id="clip_1">
      <use xlink:href="#path_1" clip-rule="evenodd" fill-rule="evenodd" />
    </clipPath>
  </defs>
  <g id="Frame">
    <path d="M451.4 0L451.4 0L451.4 314.69L0 314.69L0 0L451.4 0Z" id="Frame" fill="none" stroke="none" />
    <path d="M10.8212 162.253C43.6049 108.718 2.57111 69.2692 46.3214 31.2526C90.0716 -6.76407 168.501 70.9601 264.322 59.2527C360.143 47.5454 415.325 1.25174 415.325 1.25174C415.325 1.25174 355.25 15.1196 415.325 1.25174C475.399 -12.6161 446.591 92.0061 427.322 153.753C408.055 215.5 446.442 285.888 415.325 298.754C384.207 311.62 391.2 286.879 302.824 289.254C214.448 291.629 86.1287 329.463 61.8217 308.253C37.5146 287.044 64.1155 293.418 46.3214 245.253C28.5272 197.088 -21.9624 215.788 10.8212 162.253Z" id="Background" fill="#5E489C" fill-rule="evenodd" stroke="none" clip-path="url(#clip_1)" />
  </g>
</svg>